<?xml version="1.0" encoding="UTF-8"?>
<svg version="1.1" viewBox="0 0 800 800" width="1280" height="1280" xmlns="http://www.w3.org/2000/svg">
<path transform="translate(0)" d="m0 0h800v800h-800z" fill="#FEFEFE"/>
<path transform="translate(656,19)" d="m0 0h8l7 7 6 12 6 21 1 13v22l-2 17-5 19-6 15-6 11-3 4v2l26 10 27 12 21 10-3 5-12 15-11 14-6 8v5l6 12 3 11v20l-3 12-7 14-10 11-13 8h-3l6 34 2 19v15l-3 12-4 8-7 7-12 6-4 1h-16l-13-4-11-7-7-8-4-10v-9l3-10 6-9 10-5h10l8 4 5 5 2 5v14l-8 9-12 4-1 4 4 5 7 4 4 1h7l10-3 9-6 6-8 3-9v-18l-6-42-1-5-14 2h-15l-18-4-11-4-4 1-10 8-19 13-10 7-15 10-18 11-18 10-23 12-34 15-30 11-29 9-37 8-38 5-32 1-26-1-32-4-28-6-27-8-20-8-22-11-20-12-16-11-10-8-14-12-7-7 1-5 8-16 12-23 13-22 16-24-2-11-2-9h-3l-2 4-9 8-8 3h-10l-6-3-4-6-1-3v-10l5-10 4-5 10-6 8-2 8 1-7-24-17-57-7-25-2-9 5 1 9 11 13 11 19 12 3 1h23l43-4 27-5 19-4 25-8 25-10 25-12 22-13 12-8 7-5h4l6 26v2h2l3-10 7-21 2-1 10 8 15 11 20 13 17 10 27 14 28 12 27 9 25 6 24 4 26 3 25 1-1 5-12 29-15 36-14 36-8 18-10 13-8 10-12 13-22 22-11 9-14 10-16 10-19 8-13 4-15 2h-13l-16-3-17-7-11-8-9-8-5-6v-2l-5-1 1 7 8 10 11 9 12 7 14 5 9 2 10 1h10l15-2 15-4 15-6 20-11 11-8 12-9 12-11 4-4h2v-2l14-14 7-8 8-9 8-12 3-4 4 1 6 12 8 11 9 9 6 4 4-4 5 1 11 4 12 2h12l10-2h4l-8-40v-2l-5 3-5 5-8 7 1 5 2 4-5-1-1-3 1-4-4-2-5-10-1-5v-14l4-10 10-10 4-2h5l2 6 5 24 2 2 1-1v-7l-4-20v-7l12 2 10 6 5 2 12-13 2-2-7-8-7-5-11-4-22-1-5-25-3-14 1-5 9-9 3-6-9-2-19-6-5 1h-14l-27-2-36-6-32-8-18-6-6-3v-2h12l34 4 36 6 32 7 22 6 4-1 1-5-6-39v-29l3-16 6-17 8-15 7-7z" fill="#0AA3B9"/>
<path transform="translate(351,85)" d="m0 0 3 2 7 30 21 91v28l-3 27-6 29-7 24-7 17-9 17-10 13-14 14-14 9-14 6-17 3h-12l-16-3-20-8-18-11-14-11-16-15-10-11-9-11-10-13-18-27-6-12-12-45-14-56-4-14v-6l8 1 17 4 10 5 6 8 2 6v17l-4 14 3-3 4-11 2-8v-10l-4-13-6-9 1-2 41-4 31-5 26-6 26-8 26-10 25-12 16-9 16-10z" fill="#FEFEFE"/>
<path transform="translate(656,19)" d="m0 0h8l7 7 6 12 6 21 1 13v22l-2 17-5 19-6 15-6 11-3 4v2l26 10 27 12 21 10-3 5-12 15-11 14-6 8v5l6 12 3 11v20l-3 12-7 14-10 11-13 8h-3l6 34 2 19v15l-3 12-4 8-7 7-12 6-4 1h-16l-13-4-11-7-7-8-4-10v-9l3-10 6-9 10-5h10l8 4 5 5 2 5v14l-8 9-12 4-1 4 4 5 7 4 4 1h7l10-3 9-6 6-8 3-9v-18l-6-42v-7l-12 1 1-3 10-1v-7h-2l-7-36v-2l-5 3-5 5-8 7 1 5 2 4-5-1-1-3 1-4-4-2-5-10-1-5v-14l4-10 10-10 4-2h5l2 6 5 24 2 2 1-1v-7l-4-20v-7l12 2 10 6 5 2 12-13 2-2-7-8-7-5-11-4-22-1-5-25-3-14 1-5 9-9 3-6-9-2-19-6-5 1h-14l-27-2-36-6-32-8-18-6-6-3v-2h12l34 4 36 6 32 7 22 6 4-1 1-5-6-39v-29l3-16 6-17 8-15 7-7z" fill="#0AA3B9"/>
<path transform="translate(696,470)" d="m0 0h14l12 2 13 5 11 7 9 10 7 12 5 16 1 8v14l-2 14-4 14-6 11-8 9-10 7-12 6-12 3h-22l-15-4-9-4-9-7-9-10-8-16-3-13-1-6v-19l3-16 5-11 6-10 10-10 14-8 12-3z" fill="#0AA3B9"/>
<path transform="translate(510,472)" d="m0 0h70l16 3 10 5 8 9 4 9 1 4v17l-4 10-5 7-10 7-13 4 5 5 8 7 10 14 20 32v1h-32l-4-4-11-18-14-20-8-9-7-3-16-2v56h-28l-1-1v-115z" fill="#0AA3B9"/>
<path transform="translate(316,472)" d="m0 0h26l3 3 11 27 16 40 11 27 14 35v2h-29l-3-5-8-20-2-4h-51l-5 12-6 16-1 1h-28l-1-2 8-20 11-28 13-34 11-27 8-21z" fill="#0AA3B9"/>
<path transform="translate(160,472)" d="m0 0h92v19l-1 5-70 1-1 27h64l3 1v22l-4 1h-62l-1 35h75v23h-102v-133z" fill="#0AA3B9"/>
<path transform="translate(697,242)" d="m0 0 1 4 5-1 2 1 2 6 2-2 4 14v20l-3 12-7 14-10 11-13 8h-3l6 34 2 19v15l-3 12-4 8-7 7-12 6-4 1h-16l-13-4-11-7-7-8-4-10v-9l3-10 6-9 10-5h10l8 4 5 5 2 5v14l-8 9-12 4-1 4 4 5 7 4 4 1h7l10-3 9-6 6-8 3-9v-18l-6-42v-7l-12 1 1-3 10-1v-7h-2l-7-36v-2l-5 3-5 5-8 7 1 5 2 4-5-1-1-3 1-4-4-2-5-10-1-5v-14l4-10 10-10 4-2h5l2 6 5 24 2 2 1-1v-7l-4-20v-7l12 2 10 6 5 2z" fill="#0AA3B9"/>
<path transform="translate(233,623)" d="m0 0h25l3 7 16 47 3 11 1 1 12-36 10-29 1-1h24l1 1 3 60 1 22v22l-22 1-1-4-1-63-6 16-12 34-2 3h-20l-3-5-12-35-4-11-2 63-1 1h-19v-12l4-85z" fill="#065D9F"/>
<path transform="translate(354,74)" d="m0 0h4l2 14v6l3 5v15l-2 1-5-20-4-9-9 5-16 10-25 13-23 10-20 7-27 8-23 5-27 4-41 4 5 9 4 9 1 5v10l-5 17-3 5h-2l2-9 1-5v-17l-4-9-5-5-8-4-25-6 4 17 11 43 9 35 8 29 8 14 13 19 12 16 12 14 11 12 13 12 18 13 14 8v2l2 1-6-1-8-4-7-5-5-3-9-7-2-1v-2l-4-1-6-7-8-7-10-11-7-8-1-3h-2l-4-7-4-4-4-6v-3h-2l-6-10v-3h-2v-2h-2l-3-3-3-7-5-6-2-5-2-12h-2l-2-9h-3l-2 4-9 8-8 3h-10l-6-3-4-6-1-3v-10l5-10 4-5 10-6 8-2 8 1-7-24-17-57-7-25-2-9 5 1 9 11 13 11 19 12 3 1h23l43-4 27-5 19-4 25-8 25-10 25-12 22-13 12-8z" fill="#0AA3B9"/>
<path transform="translate(31,472)" d="m0 0h104l1 1v22l-3 1-35 1-1 109h-28l-1-109-33-1-5-1v-22z" fill="#0AA3B9"/>
<path transform="translate(387,472)" d="m0 0h106v24l-38 1-1 109h-27l-1-1v-107l-1-1-37-1-1-5z" fill="#0AA3B9"/>
<path transform="translate(698,493)" d="m0 0 13 1 11 4 10 9 5 9 3 17v11l-2 12-5 12-6 8-9 6-12 3h-8l-12-4-9-7-7-11-3-10-1-17 2-15 4-11 8-9 10-6z" fill="#FEFEFE"/>
<path transform="translate(313,260)" d="m0 0 3 1 5 15 2 10v14l-3 11-6 11-7 8-11 7-16 6-11 2h-12l-13-3-10-6-7-6-7-10-7-15-4-13v-3l9 3 14 3h17l23-5 19-7 10-6 7-7 4-6z" fill="#0AA3B9"/>
<path transform="translate(411,259)" d="m0 0h12l14 3 12 5 11 7 7 7 6 10 3 13v9l-2 14-3 12-4 1-7-9-11-9-13-8-22-8-20-4h-15l-1-2 5-22 3-6 8-7 11-5z" fill="#FEFEFE"/>
<path transform="translate(371,647)" d="m0 0h16l11 4 7 7 4 6 3 11v16l-1 1h-48l2 9 5 8 5 3 9 2 13-1 8-3h3v15l-4 3-16 4h-8l-12-3-12-6-9-10-4-10-1-4v-20l4-13 7-10 5-4 8-4z" fill="#065FA0"/>
<path transform="translate(154,648)" d="m0 0h20l11 4 5 4 5 8 2 8 1 43 1 12-13 3-6 1-1-7-15 6-11 1-10-4-6-5-4-7v-15l4-7 8-7 10-3 22-2-2-9-4-5-5-2h-12l-12 4h-2l-1-8 2-8 8-4z" fill="#065FA0"/>
<path transform="translate(608,648)" d="m0 0h20l9 3 10 9 4 9 1 50 1 7-7 2-8 3-4-1-2-5-15 5h-13l-8-4-5-5-4-7v-14l3-6 5-5 7-4 8-2 20-2v-7l-4-6-6-3h-13l-11 4h-2l-1-8 2-8 9-4z" fill="#065EA0"/>
<path transform="translate(639,184)" d="m0 0h4l6 34v5l-12 7-10 9-5 8-4 12-1 11 5 16 8 11 8 5-5 6-13 10-5 1-9-7-8-10-5-10-3-11-1-6v-12l13-33 8-18 24-24z" fill="#0AA3B9"/>
<path transform="translate(523,647)" d="m0 0 3 1 2 5 4-1 10-4h16l10 5 6 7 3 8v60l-9 1-11-1-1-1v-44l-1-11-4-4-3-2h-12l-6 2-1 60-10 1-11-1-1-71-1-3 1-2z" fill="#065FA0"/>
<path transform="translate(434,648)" d="m0 0h7l1 5 5-1 9-4h16l10 4 7 8 3 8v60h-20l-1-5v-17l-1-32-3-5-5-3h-11l-6 2-1 2-1 59h-13l-7-1-1-64-1-12z" fill="#065FA0"/>
<path transform="translate(69,623)" d="m0 0h21l1 80 1 6 5 1h28l3 2-1 16h-43l-8-4-5-6-2-4z" fill="#065B9F"/>
<path transform="translate(727,648)" d="m0 0h16l12 3 1 4-1 12-9-2-11-1-7 2-2 1v6l10 6 11 6 7 6 4 7 1 10-4 9-5 6-12 6-4 1h-20l-8-3-1-2v-13l4-1 7 2h16l5-3 1-4-5-5-18-10-7-7-3-9 1-11 5-8 9-6z" fill="#065D9F"/>
<path transform="translate(662,53)" d="m0 0 7 1 5 7 2 9-1 16-3 10-7 14-14 19-8 10-3-1-3-19v-20l3-14 6-16 6-9 8-6z" fill="#FEFEFE"/>
<path transform="translate(678,649)" d="m0 0h6l1 1 1 60 2 3 8 1 1 1v10l-2 4h-17l-6-3-6-8-2-9v-59z" fill="#065FA0"/>
<path transform="translate(539,495)" d="m0 0 38 1 8 3 6 7v10l-4 8-5 3-5 1h-39l-1-1 1-31z" fill="#FEFEFE"/>
<path transform="translate(316,170)" d="m0 0h13l11 4 7 5 6 9v5l-7 4-4-1-5-5-5-4-4-2h-12l-10 3-9 5-8 8-6 11-3 2-7-3-1-2 1-9 6-11 8-8 16-8z" fill="#0AA3B9"/>
<path transform="translate(189,198)" d="m0 0h8l10 2 12 6 6 5 3 4-1 4-5 5-6-2-12-7-8-2h-8l-12 3-9 5-5 8-5 11-3 1-6-2-2-4 1-9 6-12 10-9 13-5z" fill="#0AA3B9"/>
<path transform="translate(499,190)" d="m0 0h7l2 2 3 13 5 7 10 6 10 3h12l12-5 8-2 5 5v5l-7 6-9 4-10 2h-11l-15-4-13-7-8-9-4-10v-13z" fill="#FEFEFE"/>
<path transform="translate(685,256)" d="m0 0 3 1 6 12 2 7v19l-4 10-6 9-9 8-2-2-7-30-1-6v-10l10-9 7-8z" fill="#FEFEFE"/>
<path transform="translate(384,146)" d="m0 0h8l2 2 3 13 7 8 8 5 11 3h10l11-4 6-3h6l3 3v6l-8 7-11 4-4 1h-15l-12-3-14-7-7-7-7-14v-11z" fill="#FEFEFE"/>
<path transform="translate(328,506)" d="m0 0h2l7 18 8 22 1 1v5l-10 1h-24l1-6 11-30z" fill="#FEFEFE"/>
<path transform="translate(731,742)" d="m0 0h15l6 4 3 6v12l-4 6-6 4-4 1h-9l-3-3-1-3v-24z" fill="#096494"/>
<path transform="translate(656,742)" d="m0 0h15l5 3 3 4 1 3v13l-4 6-4 3-5 1h-9l-3-4-1-5v-22z" fill="#096494"/>
<path transform="translate(591,742)" d="m0 0 5 1 9 23 8-23 1-1h5l1 3v29l-5-1v-17l-2 1-4 10-2 7h-5l-5-14-3-7 1 20-1 1h-5l-1-2 1-27z" fill="#096494"/>
<path transform="translate(672,612)" d="m0 0h7l6 5 2 4v7l-5 6-4 2h-7l-5-4-2-4v-8l3-5z" fill="#065FA0"/>
<path transform="translate(373,661)" d="m0 0h10l7 6 2 4v7l-4 1h-24l-1-1v-6l5-8z" fill="#FEFEFE"/>
<path transform="translate(635,742)" d="m0 0 4 1 4 8 8 20 1 4h-5l-5-10h-8l-4 1-3 8h-5l8-22z" fill="#096494"/>
<path transform="translate(163,696)" d="m0 0h12l2 4v9l-4 4-4 2h-10l-5-5-1-6 3-5z" fill="#FEFEFE"/>
<path transform="translate(617,696)" d="m0 0h11l3 3v10l-6 5-3 1h-9l-5-5v-8l4-4z" fill="#FEFEFE"/>
<path transform="translate(660,747)" d="m0 0h9l5 3 2 5-1 10-5 4-7 2-3-1-1-2v-20z" fill="#FEFEFE"/>
<path transform="translate(735,747)" d="m0 0h9l5 5 1 3v7l-3 5-4 3h-8l-1-1-1-17z" fill="#FEFEFE"/>
<path transform="translate(686,743)" d="m0 0h12l-4 2-3 5v5l10 2v2l3-1 4 7 4 5 1 5-5-1-9-12-8-2v15l-5-1-1-1v-25z" fill="#096494"/>
<path transform="translate(689,742)" d="m0 0h13l6 2 3 5-1 6-5 6-4-2v-2h-8l-3-2 1-8 3-3-5-1z" fill="#096494"/>
<path transform="translate(717,742)" d="m0 0 5 1 1 2v28l-2 2h-4z" fill="#096193"/>
<path transform="translate(692,746)" d="m0 0h9l4 3v6l-2 1h-12l-1-1 1-8z" fill="#FEFEFE"/>
<path transform="translate(636,750)" d="m0 0h2l2 5v5h-8l1-4z" fill="#FEFEFE"/>
</svg>
