<?xml version="1.0" encoding="UTF-8"?>
<svg version="1.1" viewBox="0 0 800 800" width="1280" height="1280" xmlns="http://www.w3.org/2000/svg">
<path transform="translate(0)" d="m0 0h800v800h-800z" fill="#FEFEFE"/>
<path transform="translate(656,19)" d="m0 0h8l7 7 6 12 6 21 1 13v22l-2 17-5 19-6 15-6 11-3 4v2l26 10 27 12 21 10-3 5-12 15-11 14-6 8v5l6 12 3 11v20l-3 12-7 14-10 11-13 8h-3l6 34 2 19v15l-3 12-4 8-7 7-12 6-4 1h-16l-13-4-11-7-7-8-4-10v-9l3-10 6-9 10-5h10l8 4 5 5 2 5v14l-8 9-12 4-1 4 4 5 7 4 4 1h7l10-3 9-6 6-8 3-9v-18l-6-42-1-5-14 2h-15l-18-4-11-4-4 1-10 8-19 13-10 7-15 10-18 11-18 10-23 12-34 15-30 11-29 9-37 8-38 5-32 1-26-1-32-4-28-6-27-8-20-8-22-11-20-12-16-11-10-8-14-12-7-7 1-5 8-16 12-23 13-22 16-24-2-11-2-9h-3l-2 4-9 8-8 3h-10l-6-3-4-6-1-3v-10l5-10 4-5 10-6 8-2 8 1-7-24-17-57-7-25-2-9 5 1 9 11 13 11 19 12 3 1h23l43-4 27-5 19-4 25-8 25-10 25-12 22-13 12-8 7-5h4l6 26v2h2l3-10 7-21 2-1 10 8 15 11 20 13 17 10 27 14 28 12 27 9 25 6 24 4 26 3 25 1-1 5-12 29-15 36-14 36-8 18-10 13-8 10-12 13-22 22-11 9-14 10-16 10-19 8-13 4-15 2h-13l-16-3-17-7-11-8-9-8-5-6v-2l-5-1 1 7 8 10 11 9 12 7 14 5 9 2 10 1h10l15-2 15-4 15-6 20-11 11-8 12-9 12-11 4-4h2v-2l14-14 7-8 8-9 8-12 3-4 4 1 6 12 8 11 9 9 6 4 4-4 5 1 11 4 12 2h12l10-2h4l-8-40v-2l-5 3-5 5-8 7 1 5 2 4-5-1-1-3 1-4-4-2-5-10-1-5v-14l4-10 10-10 4-2h5l2 6 5 24 2 2 1-1v-7l-4-20v-7l12 2 10 6 5 2 12-13 2-2-7-8-7-5-11-4-22-1-5-25-3-14 1-5 9-9 3-6-9-2-19-6-5 1h-14l-27-2-36-6-32-8-18-6-6-3v-2h12l34 4 36 6 32 7 22 6 4-1 1-5-6-39v-29l3-16 6-17 8-15 7-7z" fill="#0AA3B9"/>
<path transform="translate(351,85)" d="m0 0 3 2 7 30 21 91v28l-3 27-6 29-7 24-7 17-9 17-10 13-14 14-14 9-14 6-17 3h-12l-16-3-20-8-18-11-14-11-16-15-10-11-9-11-10-13-18-27-6-12-12-45-14-56-4-14v-6l8 1 17 4 10 5 6 8 2 6v17l-4 14 3-3 4-11 2-8v-10l-4-13-6-9 1-2 41-4 31-5 26-6 26-8 26-10 25-12 16-9 16-10z" fill="#FEFEFE"/>
<path transform="translate(656,19)" d="m0 0h8l7 7 6 12 6 21 1 13v22l-2 17-5 19-6 15-6 11-3 4v2l26 10 27 12 21 10-3 5-12 15-11 14-6 8v5l6 12 3 11v20l-3 12-7 14-10 11-13 8h-3l6 34 2 19v15l-3 12-4 8-7 7-12 6-4 1h-16l-13-4-11-7-7-8-4-10v-9l3-10 6-9 10-5h10l8 4 5 5 2 5v14l-8 9-12 4-1 4 4 5 7 4 4 1h7l10-3 9-6 6-8 3-9v-18l-6-42v-7l-12 1 1-3 10-1v-7h-2l-7-36v-2l-5 3-5 5-8 7 1 5 2 4-5-1-1-3 1-4-4-2-5-10-1-5v-14l4-10 10-10 4-2h5l2 6 5 24 2 2 1-1v-7l-4-20v-7l12 2 10 6 5 2 12-13 2-2-7-8-7-5-11-4-22-1-5-25-3-14 1-5 9-9 3-6-9-2-19-6-5 1h-14l-27-2-36-6-32-8-18-6-6-3v-2h12l34 4 36 6 32 7 22 6 4-1 1-5-6-39v-29l3-16 6-17 8-15 7-7z" fill="#0AA3B9"/>
<path transform="translate(696,470)" d="m0 0h14l12 2 13 5 11 7 9 10 7 12 5 16 1 8v14l-2 14-4 14-6 11-8 9-10 7-12 6-12 3h-22l-15-4-9-4-9-7-9-10-8-16-3-13-1-6v-19l3-16 5-11 6-10 10-10 14-8 12-3z" fill="#0AA3B9"/>
<path transform="translate(510,472)" d="m0 0h70l16 3 10 5 8 9 4 9 1 4v17l-4 10-5 7-10 7-13 4 5 5 8 7 10 14 20 32v1h-32l-4-4-11-18-14-20-8-9-7-3-16-2v56h-28l-1-1v-115z" fill="#0AA3B9"/>
<path transform="translate(316,472)" d="m0 0h26l3 3 11 27 16 40 11 27 14 35v2h-29l-3-5-8-20-2-4h-51l-5 12-6 16-1 1h-28l-1-2 8-20 11-28 13-34 11-27 8-21z" fill="#0AA3B9"/>
<path transform="translate(160,472)" d="m0 0h92v19l-1 5-70 1-1 27h64l3 1v22l-4 1h-62l-1 35h75v23h-102v-133z" fill="#0AA3B9"/>
<path transform="translate(697,242)" d="m0 0 1 4 5-1 2 1 2 6 2-2 4 14v20l-3 12-7 14-10 11-13 8h-3l6 34 2 19v15l-3 12-4 8-7 7-12 6-4 1h-16l-13-4-11-7-7-8-4-10v-9l3-10 6-9 10-5h10l8 4 5 5 2 5v14l-8 9-12 4-1 4 4 5 7 4 4 1h7l10-3 9-6 6-8 3-9v-18l-6-42v-7l-12 1 1-3 10-1v-7h-2l-7-36v-2l-5 3-5 5-8 7 1 5 2 4-5-1-1-3 1-4-4-2-5-10-1-5v-14l4-10 10-10 4-2h5l2 6 5 24 2 2 1-1v-7l-4-20v-7l12 2 10 6 5 2z" fill="#0AA3B9"/>
<path transform="translate(233,623)" d="m0 0h25l3 7 16 47 3 11 1 1 12-36 10-29 1-1h24l1 1 3 60 1 22v22l-22 1-1-4-1-63-6 16-12 34-2 3h-20l-3-5-12-35-4-11-2 63-1 1h-19v-12l4-85z" fill="#065D9F"/>
<path transform="translate(354,74)" d="m0 0h4l2 14v6l3 5v15l-2 1-5-20-4-9-9 5-16 10-25 13-23 10-20 7-27 8-23 5-27 4-41 4 5 9 4 9 1 5v10l-5 17-3 5h-2l2-9 1-5v-17l-4-9-5-5-8-4-25-6 4 17 11 43 9 35 8 29 8 14 13 19 12 16 12 14 11 12 13 12 18 13 14 8v2l2 1-6-1-8-4-7-5-5-3-9-7-2-1v-2l-4-1-6-7-8-7-10-11-7-8-1-3h-2l-4-7-4-4-4-6v-3h-2l-6-10v-3h-2v-2h-2l-3-3-3-7-5-6-2-5-2-12h-2l-2-9h-3l-2 4-9 8-8 3h-10l-6-3-4-6-1-3v-10l5-10 4-5 10-6 8-2 8 1-7-24-17-57-7-25-2-9 5 1 9 11 13 11 19 12 3 1h23l43-4 27-5 19-4 25-8 25-10 25-12 22-13 12-8z" fill="#0AA3B9"/>
<path transform="translate(31,472)" d="m0 0h104l1 1v22l-3 1-35 1-1 109h-28l-1-109-33-1-5-1v-22z" fill="#0AA3B9"/>
<path transform="translate(387,472)" d="m0 0h106v24l-38 1-1 109h-27l-1-1v-107l-1-1-37-1-1-5z" fill="#0AA3B9"/>
<path transform="translate(698,493)" d="m0 0 13 1 11 4 10 9 5 9 3 17v11l-2 12-5 12-6 8-9 6-12 3h-8l-12-4-9-7-7-11-3-10-1-17 2-15 4-11 8-9 10-6z" fill="#FEFEFE"/>
<path transform="translate(313,260)" d="m0 0 3 1 5 15 2 10v14l-3 11-6 11-7 8-11 7-16 6-11 2h-12l-13-3-10-6-7-6-7-10-7-15-4-13v-3l9 3 14 3h17l23-5 19-7 10-6 7-7 4-6z" fill="#0AA3B9"/>
<path transform="translate(411,259)" d="m0 0h12l14 3 12 5 11 7 7 7 6 10 3 13v9l-2 14-3 12-4 1-7-9-11-9-13-8-22-8-20-4h-15l-1-2 5-22 3-6 8-7 11-5z" fill="#FEFEFE"/>
<path transform="translate(371,647)" d="m0 0h16l11 4 7 7 4 6 3 11v16l-1 1h-48l2 9 5 8 5 3 9 2 13-1 8-3h3v15l-4 3-16 4h-8l-12-3-12-6-9-10-4-10-1-4v-20l4-13 7-10 5-4 8-4z" fill="#065FA0"/>
<path transform="translate(154,648)" d="m0 0h20l11 4 5 4 5 8 2 8 1 43 1 12-13 3-6 1-1-7-15 6-11 1-10-4-6-5-4-7v-15l4-7 8-7 10-3 22-2-2-9-4-5-5-2h-12l-12 4h-2l-1-8 2-8 8-4z" fill="#065FA0"/>
<path transform="translate(608,648)" d="m0 0h20l9 3 10 9 4 9 1 50 1 7-7 2-8 3-4-1-2-5-15 5h-13l-8-4-5-5-4-7v-14l3-6 5-5 7-4 8-2 20-2v-7l-4-6-6-3h-13l-11 4h-2l-1-8 2-8 9-4z" fill="#065EA0"/>
<path transform="translate(639,184)" d="m0 0h4l6 34v5l-12 7-10 9-5 8-4 12-1 11 5 16 8 11 8 5-5 6-13 10-5 1-9-7-8-10-5-10-3-11-1-6v-12l13-33 8-18 24-24z" fill="#0AA3B9"/>
<path transform="translate(523,647)" d="m0 0 3 1 2 5 4-1 10-4h16l10 5 6 7 3 8v60l-9 1-11-1-1-1v-44l-1-11-4-4-3-2h-12l-6 2-1 60-10 1-11-1-1-71-1-3 1-2z" fill="#065FA0"/>
<path transform="translate(434,648)" d="m0 0h7l1 5 5-1 9-4h16l10 4 7 8 3 8v60h-20l-1-5v-17l-1-32-3-5-5-3h-11l-6 2-1 2-1 59h-13l-7-1-1-64-1-12z" fill="#065FA0"/>
<path transform="translate(69,623)" d="m0 0h21l1 80 1 6 5 1h28l3 2-1 16h-43l-8-4-5-6-2-4z" fill="#065B9F"/>
<path transform="translate(727,648)" d="m0 0h16l12 3 1 4-1 12-9-2-11-1-7 2-2 1v6l10 6 11 6 7 6 4 7 1 10-4 9-5 6-12 6-4 1h-20l-8-3-1-2v-13l4-1 7 2h16l5-3 1-4-5-5-18-10-7-7-3-9 1-11 5-8 9-6z" fill="#065D9F"/>
<path transform="translate(656,19)" d="m0 0h8l7 7 6 12 3 9v17l-1 13h2l1 6-2 1-1 8-8 16-6 8h-2l-2 4-4 6-3 2 1-6 9-12 8-16 3-16v-8l-2-9-4-6-7-1-9 6-6 9-6 16-3 14h-2v19l-1 15-2-4-2-5-3-19v-29l3-16 6-17 8-15 7-7z" fill="#0AA3B9"/>
<path transform="translate(662,53)" d="m0 0 7 1 5 7 2 9-1 16-3 10-7 14-14 19-8 10-3-1-3-19v-20l3-14 6-16 6-9 8-6z" fill="#FEFEFE"/>
<path transform="translate(678,649)" d="m0 0h6l1 1 1 60 2 3 8 1 1 1v10l-2 4h-17l-6-3-6-8-2-9v-59z" fill="#065FA0"/>
<path transform="translate(623,369)" d="m0 0h10l8 4 5 5 2 5v14l-8 9-12 4-1 4 4 5 7 4 4 1h7l10-3 9-6 5-6 1 2-7 8-7 4-9 3h-10l-11-4-5-3h-4v4l-4-2-7-6-5-9-1-4v-9l3-10 6-9z" fill="#0AA3B9"/>
<path transform="translate(354,74)" d="m0 0h4l2 14v6l3 5v15l-2 1-5-20-4-9-9 5-16 10-25 13-23 10-20 7-27 8-23 5-19 3-23 1h-23v-3h-8v-1l23-1 39-4 21-4h5l1-3 21-5 24-8 23-10 21-10 22-13 12-8z" fill="#0AA2B8"/>
<path transform="translate(539,495)" d="m0 0 38 1 8 3 6 7v10l-4 8-5 3-5 1h-39l-1-1 1-31z" fill="#FEFEFE"/>
<path transform="translate(102,188)" d="m0 0 2 1 8 26 1 7 3 7 3 11 2 15-2-2v-3h-3l-2 4-9 8-8 3h-10l-6-3-4-6-1-3v-10l5-10 4-5 10-6 8-2 8 1-7-24z" fill="#0AA3B9"/>
<path transform="translate(316,170)" d="m0 0h13l11 4 7 5 6 9v5l-7 4-4-1-5-5-5-4-4-2h-12l-10 3-9 5-8 8-6 11-3 2-7-3-1-2 1-9 6-11 8-8 16-8z" fill="#0AA3B9"/>
<path transform="translate(189,198)" d="m0 0h8l10 2 12 6 6 5 3 4-1 4-5 5-6-2-12-7-8-2h-8l-12 3-9 5-5 8-5 11-3 1-6-2-2-4 1-9 6-12 10-9 13-5z" fill="#0AA3B9"/>
<path transform="translate(499,190)" d="m0 0h7l2 2 3 13 5 7 10 6 10 3h12l12-5 8-2 5 5v5l-7 6-9 4-10 2h-11l-15-4-13-7-8-9-4-10v-13z" fill="#FEFEFE"/>
<path transform="translate(685,256)" d="m0 0 3 1 6 12 2 7v19l-4 10-6 9-9 8-2-2-7-30-1-6v-10l10-9 7-8z" fill="#FEFEFE"/>
<path transform="translate(384,146)" d="m0 0h8l2 2 3 13 7 8 8 5 11 3h10l11-4 6-3h6l3 3v6l-8 7-11 4-4 1h-15l-12-3-14-7-7-7-7-14v-11z" fill="#FEFEFE"/>
<path transform="translate(493,127)" d="m0 0h12l34 4 36 6 32 7 4 2v2l4 1 2 1v2l-7 1h-13l-19-2-29-5-32-8-18-6-6-3z" fill="#0AA3B9"/>
<path transform="translate(649,246)" d="m0 0h5l2 6 5 24 2 2 1-1v-11l2 2v4l3 1-1 1v15l-2-3-1-3-2 7h-1l-1-7-5 3-5 5-8 7 1 5 2 4-5-1-1-3 1-4-4-2-5-10-1-5v-14l4-10 10-10z" fill="#0AA3B9"/>
<path transform="translate(665,278)" d="m0 0h1l2 11 2 6 2 16v7l3 6 2 17 2 7v4h2l3 20 1 10v15l-3 12-4 8-7 7-12 6-4 1h-16l-13-4-5-3-1-3 3-3 6 2 8 4 4 1h10l12-4 9-8 5-15v-18l-6-42v-7l-12 1 1-3 10-1v-7h-2l-5-26v-9z" fill="#0997AF"/>
<path transform="translate(696,470)" d="m0 0h14l12 2 13 5 11 7 9 10 7 12 3 8v6l-4-1-4-10-4-6-4-7-6-7-10-8-11-5-19-1-17 1-10 4-16 12-1 2h-2l-2 4-6 10-4 8-1 7-1 5-1 14 1 2 1 10 2 5v7l3 5 2 8 3 1 1 2 3 1 5 7 10 8 3 4h-5l-11-8-7-7-7-11-5-12-3-16v-19l3-16 5-11 6-10 10-10 14-8 12-3z" fill="#0995AE"/>
<path transform="translate(656,19)" d="m0 0h8l7 7 6 12 3 9v17l-1 13h2l1 6-2 1-1 8-8 16-6 8h-2l-2 4-4 6-3 2 1-6 9-12 8-16 3-16v-8l-2-9-1-5 4-1v-11l-3-3-3-6-6-9-5-2-6 4-7 9-5 10-1 4-4 10-3 11-1 19 3-1h3v9h-2v19l-1 15-2-4-2-5-3-19v-29l3-16 6-17 8-15 7-7z" fill="#0997AF"/>
<!-- <path transform="translate(380,262)" d="m0 0h2l3 5 3 1-1 4-3 6-4 16h-2l-1 9-2 3h-2l-3 15-3 8-3 3-9 17-1 3h-2l-1 5-4 3h-2l-2 5-14 14-13 9-20 9-7 2-7-1h-16l-17-4-10-4v-2h6l11 4 13 2h12l17-3 16-7 13-9 14-14 11-16 11-23 5-15 7-28h2l1-8z" fill="#0998B0"/> -->
<path transform="translate(104,187)" d="m0 0h2l4 13 1 3h2l3 11 2 10 2 8v5h2l1 7 3 9 5 12 4 13 9 15 11 16 12 16 12 14 11 12 13 12 18 13 14 8v2l2 1-6-1-8-4-7-5-5-3-9-7-2-1v-2l-4-1-6-7-8-7-10-11-7-8-1-3h-2l-4-7-4-4-4-6v-3h-2l-6-10v-3h-2v-2h-2l-3-3-3-7-5-6-2-5-2-12h-2l-3-19-5-17-1-1-2-10-6-20z" fill="#0998AF"/>
<path transform="translate(328,506)" d="m0 0h2l7 18 8 22 1 1v5l-10 1h-24l1-6 11-30z" fill="#FEFEFE"/>
<path transform="translate(78,352)" d="m0 0h1l3 12 4 2 3 3h2l5 5 3 2 1 3 2 1 1 3 6 4 6 1 5 5 4 2 3 1v2l5 2 8 5 8 2v2l6 2 8 5 8 4 6 1v2l15 3 5 2 8 2 3 2 12 2 5 3h14l5 3 5 1 17 1v2l4 1-14-1-23-2-23-5-27-8-20-8-22-11-20-12-16-11-10-8-14-12-7-7v-3z" fill="#0991AD"/>
<path transform="translate(731,742)" d="m0 0h15l6 4 3 6v12l-4 6-6 4-4 1h-9l-3-3-1-3v-24z" fill="#095086"/>
<path transform="translate(656,742)" d="m0 0h15l5 3 3 4 1 3v13l-4 6-4 3-5 1h-9l-3-4-1-5v-22z" fill="#095E90"/>
<!-- <path transform="translate(315,473)" d="m0 0h11v1h-5v2h-2v4l-3 3-3 10-2 5v2l-3 3-4 12-5 17-6 13-4 11-3 6-3 10-2 3h-2l-1 5-4 6-2 1 2-11 10-25 11-29 11-27 8-21z" fill="#0997AE"/> -->
<!-- <path transform="translate(519,382)" d="m0 0 4 1-4 2-3 3-21 11-34 15-30 11-6 2-14 3-23 6-10 2-4-1h2l1-3 7-1 5-1 7-2 9-1 9-3 13-4 13-6 14-5 10-4 11-6 14-6 11-4 7-2 4-2v-2z" fill="#0998B0"/> -->
<path transform="translate(353,77)" d="m0 0h2v3l-10 10-20 12-23 12-23 10-20 7-9 3-16 2 2-3 16-4 11-3 3-3 11-3 6-2 4-4 23-11 23-13 12-7z" fill="#0996AF"/>
<path transform="translate(591,742)" d="m0 0 5 1 9 23 8-23 1-1h5l1 3v29l-5-1v-17l-2 1-4 10-2 7h-5l-5-14-3-7 1 20-1 1h-5l-1-2 1-27z" fill="#095A8F"/>
<path transform="translate(238,131)" d="m0 0 4 1-7 3 11-1-3 2-25 6-22 4-6 1-23 1h-23v-3h-8v-1l23-1 39-4z" fill="#0996AE"/>
<!-- <path transform="translate(680,352)" d="m0 0h1l3 20 1 10v15l-3 12-4 8-7 7-12 6-4 1h-16l-13-4-5-3-1-3 3-3 6 2 8 4 4 1h10l12-4 9-8 5-15 2 1-1 10 2-5h2v-31l-2-12z" fill="#0890AC"/> -->
<path transform="translate(493,127)" d="m0 0h12l34 4 8 2v2h3l1 3 2 2 3 2v2h-8l-8-3-16-1-19-6-12-5z" fill="#0AA3B9"/>
<path transform="translate(727,501)" d="m0 0 7 1 5 5 4 8h-2l2 19v12l-2 17h-2v5l-2 3h-2v2h-2l-2 4-9 7-9 3h-16v-2l15-2 10-4 6-5 7-12 3-10 1-8v-11l-3-17-5-9-4-4z" fill="#0997AF"/>
<path transform="translate(672,612)" d="m0 0h7l6 5 2 4v7l-5 6-4 2h-7l-5-4-2-4v-8l3-5z" fill="#065FA0"/>
<path transform="translate(660,243)" d="m0 0 12 2 8 5 2 5h2l-1 4-8 9-5 4h-4l-3-7-3-15z" fill="#0AA3B9"/>
<path transform="translate(373,661)" d="m0 0h10l7 6 2 4v7l-4 1h-24l-1-1v-6l5-8z" fill="#FEFEFE"/>
<!-- <path transform="translate(121,273)" d="m0 0h2v6l-2 6h-2v3l-3 3-1 2h-2l-2 6-9 15-1 3h-2l-1 4-6 11-3 7h-2v4h-2l-1 4h-2v2l-3 1 3-11 12-23 13-22 8-12z" fill="#0997AE"/> -->
<path transform="translate(635,742)" d="m0 0 4 1 4 8 8 20 1 4h-5l-5-10h-8l-4 1-3 8h-5l8-22z" fill="#095F91"/>
<path transform="translate(428,503)" d="m0 0h2l1 39v51l2 6 4 2h10l6-1 1 6h-27v-26z" fill="#0994AD"/>
<path transform="translate(163,696)" d="m0 0h12l2 4v9l-4 4-4 2h-10l-5-5-1-6 3-5z" fill="#FEFEFE"/>
<path transform="translate(617,696)" d="m0 0h11l3 3v10l-6 5-3 1h-9l-5-5v-8l4-4z" fill="#FEFEFE"/>
<path transform="translate(765,551)" d="m0 0h1v7l-4 14-6 11-8 9-10 7-12 6-9 1v-3l4-3h3v-2l4-1 7-4 6-4 3-1v-2h2v-2l6-5h2l1-6 4-7 1-7 4-5z" fill="#0996AE"/>
<path transform="translate(677,47)" d="m0 0h3v17l-1 13h2l1 6-2 1-1 8-8 16-6 8h-2l-2 4-4 6-3 2 1-6 9-12 8-16 3-16v-8l-2-9-1-5 4-1v-7z" fill="#0996AF"/>
<path transform="translate(660,747)" d="m0 0h9l5 3 2 5-1 10-5 4-7 2-3-1-1-2v-20z" fill="#FEFEFE"/>
<path transform="translate(327,473)" d="m0 0h17l8 19 12 30 9 22v5l-4-3v-5l-2-1 1-2h-2l-4-9-3-3-5-13-2-7v-5h-2l-2-5-3-9-2-5v-3l-3-1v-3l-13-1z" fill="#0997AF"/>
<path transform="translate(735,747)" d="m0 0h9l5 5 1 3v7l-3 5-4 3h-8l-1-1-1-17z" fill="#FEFEFE"/>
<path transform="translate(134,154)" d="m0 0 6 1 5 4 4 8 2 8v10l-5 17-3 5h-2l2-9 1-5v-17l-4-9-10-10v-2z" fill="#0997AF"/>
<path transform="translate(180,424)" d="m0 0 11 2 5 2 8 2 3 2 12 2 5 3h14l5 3 5 1 17 1v2l4 1-14-1-23-2-23-5-27-8-5-2z" fill="#0999B0"/>
<path transform="translate(686,743)" d="m0 0h12l-4 2-3 5v5l10 2v2l3-1 4 7 4 5 1 5-5-1-9-12-8-2v15l-5-1-1-1v-25z" fill="#09598C"/>
<path transform="translate(323,378)" d="m0 0 3 1-5 6-16 8-15 6-8-1h-16l-17-4-10-4v-2h6l11 4 13 2h12l17-3 16-7z" fill="#0992AD"/>
<!-- <path transform="translate(104,187)" d="m0 0h2l4 13 1 3h2l3 11 2 10 2 8v5h2l1 7 3 9 2 5v7l-3 3-2-9h-2l-3-19-5-17-1-1-2-10-6-20z" fill="#0995AD"/> -->
<path transform="translate(90,141)" d="m0 0h2l3 10v3h2v2h2l5 14 3 12 5 16v5l-3-3-3-9v-4h-2l-1 2-2-2-11-37z" fill="#0995AE"/>
<path transform="translate(689,742)" d="m0 0h13l6 2 3 5-1 6-5 6-4-2v-2h-8l-3-2 1-8 3-3-5-1z" fill="#096494"/>
<path transform="translate(706,298)" d="m0 0h2l-1 5-7 11-7 7-8 5h-7v-3l10-9 4-7 3-3h2l6-3h2z" fill="#0996AE"/>
<path transform="translate(395,84)" d="m0 0 5 1 24 16 17 10 21 11v2l-8-1-18-9v-2l-5-1-7-4v-2l-7-2-6-6-5-3-3-3-2-1v-2l-5-1z" fill="#0999B0"/>
<path transform="translate(669,321)" d="m0 0h1v7l-8 2 3 1h6l-1 2-14 2h-15l-18-4-8-3 4-1 13 4h15l-16-3-12-4 1-2 16 4 7 1h12l10-2h4z" fill="#0BA4BA"/>
<!-- <path transform="translate(731,195)" d="m0 0h4l-2 4-12 15-11 14-6 8v5l4 7v5l-3-3-2-4-6 1 2-7 2-2-6-7v-2l11 1 2-5 10-13 4-6 6-8z" fill="#0998B0"/> -->
<path transform="translate(594,556)" d="m0 0 4 1 8 10 14 22 8 12v4h-11l1-5 1-4-1-6-2-1-3-5v-2l-3-1v-2h-2l-7-11-1-3h-2l-5-7z" fill="#0995AE"/>
<!-- <path transform="translate(311,321)" d="m0 0h2l-2 5-8 7-14 7-14 3h-10l3-2 7-3 5-2h4l1-2 5-2 11-6 7-2v-2z" fill="#0997AE"/> -->
<path transform="translate(731,742)" d="m0 0h15l-3 5-8 1-1 10 1 12h-3v2l4 1 5 1v1h-9l-3-3-1-3v-24z" fill="#0769A0"/>
<path transform="translate(78,352)" d="m0 0h1l3 12 4 2 3 3h2l5 5 3 2 1 3 2 1 1 3 15 10 1 2-5-1-14-10-14-12-8-7-5-5v-3z" fill="#0888AB"/>
<path transform="translate(680,352)" d="m0 0h1l3 20 1 10v15l-3 12-4 8-7 7h-2l2-4 3-1v-2l-5 3-3-1 7-8 4-13 2 1-1 10 2-5h2v-31l-2-12z" fill="#099BB2"/>
<path transform="translate(287,184)" d="m0 0 1 3-6 8-2 6 6 2-1 6-5 5-7-3-1-2 1-9 4-4 4-7z" fill="#0996AE"/>
<!-- <path transform="translate(518,131)" d="m0 0h9l4 3h16l3 1 1 3 2 2 3 2v2h-8l-8-3-12-1-3-2v-5l-7-1z" fill="#0995AD"/> -->
<path transform="translate(593,475)" d="m0 0 5 1 8 4 8 9 4 9 1 4v17l-3-1v-16l-3-1-3-8-12-13-5-3z" fill="#0998AF"/>
<!-- <path transform="translate(511,547)" d="m0 0h2l1 5v36l-1 4 4 9 8 3v1h-14z" fill="#0995AD"/> -->
<path transform="translate(574,567)" d="m0 0 3 1 4 5 4 7 3 3 2 4 4 7v3l6 2 7 3v2l3 1-12 1-4-4-11-18-9-13z" fill="#0995AE"/>
<!-- <path transform="translate(209,289)" d="m0 0 12 4v2l3 1h-5v5l-1 3 4 14 4 6v2h2l1 3-4-2-6-9-6-13-4-13z" fill="#0998B0"/> -->
<path transform="translate(354,74)" d="m0 0h4l2 14v6l3 5v15l-2 1-5-20-4-9-3-1 4-5h2v-3h-2z" fill="#0997AF"/>
<path transform="translate(677,47)" d="m0 0h3v17l-1 13h2l1 6-6 5-1-18-2-9-1-5 4-1v-7z" fill="#0996AE"/>
<path transform="translate(717,742)" d="m0 0 5 1 1 2v28l-2 2h-4z" fill="#096193"/>
<!-- <path transform="translate(284,117)" d="m0 0 4 1-10 5h-2v2l-20 7-6 2-16 2 2-3 16-4 11-3 3-3 11-3 6-2z" fill="#076CA5"/> -->
<!-- <path transform="translate(78,106)" d="m0 0 5 1 9 11 3 4v3l-7-1v11l-2-3-5-19v-2h-2z" fill="#088FAD"/> -->
<path transform="translate(671,304)" d="m0 0 2 4 3 12h2l8-7 6-8 1 2-4 7-11 10v1l5 1-3 3h-3l3 17v6l-2-4-2-10-2-14-3-6z" fill="#0BA4BA"/>
<!-- <path transform="translate(380,262)" d="m0 0h2l3 5 3 1-1 4-3 6h-2l-1 8-4 4-1-11 3-13z" fill="#0890AC"/> -->
<path transform="translate(351,76)" d="m0 0h2v2l-11 8-25 14-19 10-8 4-3-1 8-5 19-9 22-13 12-8z" fill="#0BA4BA"/>
<path transform="translate(664,540)" d="m0 0 1 3h2l2 14 4 10 5 7-1 2-5-3v-2h-2l-1-4-5-5-1-3v-18z" fill="#0997AF"/>
<!-- <path transform="translate(155,532)" d="m0 0 2 4 1 19v21l-1 12-2 3-1-1z" fill="#0995AD"/> -->
<path transform="translate(614,742)" d="m0 0h5l1 3v29h-4v-22l-5 2 1-8z" fill="#095289"/>
<!-- <path transform="translate(678,365)" d="m0 0h1l1 9 2 3 1 19-1 8-2 2-2 4-1-4 1-8v-21l-1-11z" fill="#0666A2"/> -->
<!-- <path transform="translate(239,388)" d="m0 0h6l11 4 13 2h18l-4 2-1 2h-16l-17-4-10-4z" fill="#0998B0"/> -->
<!-- <path transform="translate(427,422)" d="m0 0m-3 1h3v2l-19 6-24 6-10 1 2-1 1-3 7-1 5-1 7-2 9-1 9-3z" fill="#0995AD"/> -->
<path transform="translate(692,746)" d="m0 0h9l4 3v6l-2 1h-12l-1-1 1-8z" fill="#FEFEFE"/>
<!-- <path transform="translate(353,77)" d="m0 0h2v3l-10 10-12 7-3-2 2-4 13-8z" fill="#088FAD"/> -->
<!-- <path transform="translate(334,515)" d="m0 0h2l4 8 6 13 2 11-1 3-4-7-9-24z" fill="#0998B0"/> -->
<path transform="translate(623,369)" d="m0 0h10l7 3v2l-5-1-8-1h-5l-1 3-7 6h-2l-2 4h-1v-6l4-5z" fill="#0997AF"/>
<!-- <path transform="translate(364,436)" d="m0 0 10 2v1l-23 4-22 2 1-3 7-1h11l5-3 10-1z" fill="#0995AD"/> -->
<path transform="translate(695,229)" d="m0 0 11 1-1 5-1 1v5l4 7v5l-3-3-2-4-6 1 2-7 2-2-6-7z" fill="#0997B0"/>
<path transform="translate(358,579)" d="m0 0 3 1 6 15 3 2v3l5 2v3h-8l-5-12-4-10z" fill="#0996AE"/>
<!-- <path transform="translate(614,324)" d="m0 0h7l16 4 11 2-1 2h-15l-17-5z" fill="#0995AD"/> -->
<path transform="translate(111,196)" d="m0 0h2l13 51 2 7-1 4-3-7-2-9v-5h-2l-4-15-3-16z" fill="#0BA4BA"/>
<path transform="translate(150,175)" d="m0 0h1v10l-5 17-3 5h-2l2-9 1-5 1-17 1 4h2l1 3z" fill="#0AA2B8"/>
<!-- <path transform="translate(516,356)" d="m0 0v3l-2 2-7 6h-2v2l-5 2-5 3-4 1v-2l8-7 11-7 2-2z" fill="#0998B0"/> -->
<path transform="translate(592,749)" d="m0 0h2v10l1 14-1 1h-5l-1-2 1-22h1l1 6z" fill="#08649A"/>
<path transform="translate(384,301)" d="m0 0h10l16 3v2l-5 1h-11l-10-4z" fill="#0999B0"/>
<path transform="translate(157,227)" d="m0 0 4 1-2 8-2 4-3 1-6-2v-6l4-1z" fill="#0997AF"/>
<!-- <path transform="translate(228,437)" d="m0 0h10l5 3 5 1 17 1v2l4 1-14-1-23-2v-2h-5z" fill="#0995AD"/> -->
<!-- <path transform="translate(162,208)" d="m0 0 3 1-9 11-2 5h-2l-2 6-2-1 1-9 4-4 6-7z" fill="#0995AD"/> -->
<!-- <path transform="translate(30,473)" d="m0 0h5l1 3-2 7 1 11-5 1z" fill="#0998B0"/> -->
<!-- <path transform="translate(309,657)" d="m0 0 2 1v67h-1l-1-63-4 10-2-1 5-13z" fill="#0A9FB5"/> -->
<path transform="translate(574,567)" d="m0 0 3 1 4 5 4 7 3 3 2 4-1 4-5-5-10-15z" fill="#0892AC"/>
<!-- <path transform="translate(455,270)" d="m0 0 5 2 7 5 7 9v3h2l1 8-3 1-4-11-7-9-8-7z" fill="#0998B0"/> -->
<path transform="translate(610,751)" d="m0 0 2 2 4-1v21h-1v-17l-2 1-4 10-1 6h-1v-5l-2-1z" fill="#0772A5"/>
<path transform="translate(349,185)" d="m0 0 3 1 1 7-7 4-4-1-5-5-1-3 6 1 4 2 1-1h1z" fill="#0994AF"/>
<!-- <path transform="translate(676,260)" d="m0 0 2 1-1 5-7 6h-4l-2-7h3l1-2h5l1-2z" fill="#0997AE"/> -->
<path transform="translate(591,742)" d="m0 0 5 1 3 8-1 4-4-2v-4h-2v7l-2 4-1-15z" fill="#095389"/>
<path transform="translate(756,711)" d="m0 0 1 3-6 8-10 6h-7l5-4 8-4 5-5z" fill="#095086"/>
<path transform="translate(611,146)" d="m0 0 10 2 9 3-4 3h-14l-2-2h7v-2l-6-2z" fill="#0BA4BA"/>
<path transform="translate(142,164)" d="m0 0 7 3 1 3v13l-2 4v-7h-2z" fill="#0996AE"/>
<path transform="translate(238,131)" d="m0 0 4 1-7 3 11-1-3 2-11 3h-12v-2l5 1 1-3 3-2z" fill="#088EAD"/>
<path transform="translate(154,591)" d="m0 0 2 1 2 5 1 3 5 2 2 1 8 1v1h-20z" fill="#0894AC"/>
<!-- <path transform="translate(738,682)" d="m0 0 6 1 9 7 5 8 1 10-1 3h-2v-10l-3-7-9-8-6-3z" fill="#095A8D"/> -->
<path transform="translate(295,281)" d="m0 0 3 1-4 4-10 3-1 2-9 2-2-1v-2l19-7z" fill="#0999B0"/>
<path transform="translate(390,592)" d="m0 0 1 2h2l3 8v3h-7l-3-3z" fill="#0996AE"/>
<path transform="translate(656,742)" d="m0 0h15v1h-14v20l-3 3v-22z" fill="#076DA3"/>
<path transform="translate(623,424)" d="m0 0 9 3 4 1h25l-2 2-4 1h-16l-13-4z" fill="#0BA4BA"/>
<path transform="translate(317,171)" d="m0 0h11v3l-4 1-4-2-4 1-7 1-6 2-9 2v-2l12-5z" fill="#099BB2"/>
<path transform="translate(378,69)" d="m0 0 5 3 7 6-1 2-5-1-6-2v2l-2-1 1-8z" fill="#0998AF"/>
<path transform="translate(674,499)" d="m0 0h6l-1 4-6 7-3 5-1-3 2-9z" fill="#0997AF"/>
<!-- <path transform="translate(104,187)" d="m0 0h2l4 13 2 7 2 9-2 2-8-26z" fill="#065A9F"/> -->
<!-- <path transform="translate(678,649)" d="m0 0h6v10l-6-6-11-1-1 3v-3h-2v-2z" fill="#095188"/> -->
<path transform="translate(616,520)" d="m0 0h1l-1 7-6 9-4 3-3-1 7-9 4-8z" fill="#0997AF"/>
<path transform="translate(323,378)" d="m0 0 3 1-5 6-11 6-3-1 1-3 11-6z" fill="#0889AB"/>
<!-- <path transform="translate(71,593)" d="m0 0 4 5 5 3v2l2 2h-12z" fill="#0995AD"/> -->
<!-- <path transform="translate(606,394)" d="m0 0 2 3 2 13 2 5h2v2l3 1-3 1-6-7-3-6v-11z" fill="#0998B0"/> -->
<path transform="translate(78,352)" d="m0 0h1l3 12 1 2-3 1-7-7v-3z" fill="#0992AD"/>
<path transform="translate(687,760)" d="m0 0 3 1 1 6v8l-5-1v-13z" fill="#095086"/>
<!-- <path transform="translate(248,656)" d="m0 0 3 3 1 7-2-2-1 35h-1l-1-42z" fill="#0AA0B7"/> -->
<!-- <path transform="translate(676,65)" d="m0 0h2l1 4v8h2l1 6-6 5z" fill="#0777A6"/> -->
<!-- <path transform="translate(681,629)" d="m0 0h4l-2 4-5 3h-7l-4-3v-3h2v2l3-1 7 1z" fill="#0A5A8B"/> -->
<path transform="translate(451,326)" d="m0 0 5 1 8 7-1 4-4-3-4-2-3-3z" fill="#0999B0"/>
<path transform="translate(527,130)" d="m0 0 18 2 2 2-7 1h-10l-4-3z" fill="#0BA4BA"/>
<!-- <path transform="translate(95,378)" d="m0 0 4 2 16 11 4 4-5-1-14-10-5-4z" fill="#0771A6"/> -->
<!-- <path transform="translate(268,595)" d="m0 0 5 5v2l3 1-1 2h-10z" fill="#0995AD"/> -->
<!-- <path transform="translate(256,128)" d="m0 0m-2 0 2 2-4 1v2l-10 2-8 1 2-3 16-4z" fill="#0664A2"/> -->
<path transform="translate(658,755)" d="m0 0h1l1 15h3l-1 4h-5l-2-3 1-7h1z" fill="#095488"/>
<path transform="translate(636,750)" d="m0 0h2l2 5v5h-8l1-4z" fill="#FEFEFE"/>
<!-- <path transform="translate(510,473)" d="m0 0h9l-2 1-2 4-2 6v7l-2 1z" fill="#0995AD"/> -->
<!-- <path transform="translate(379,189)" d="m0 0 2 1 3 11 1 14-1 8h-1l-1-17-3-11z" fill="#0995AD"/> -->
<path transform="translate(231,331)" d="m0 0 9 3v2l6 2 2 1v2l-10-2-5-4z" fill="#0997AF"/>
<!-- <path transform="translate(665,278)" d="m0 0h1l2 11v8l-3 2-2-9 1-7z" fill="#0881A8"/> -->
<path transform="translate(657,743)" d="m0 0h6l-1 3h-2l-2 19-3 1v-6h1z" fill="#094782"/>
<!-- <path transform="translate(534,341)" d="m0 0v3l-3 1v2l-4 1v2h-2v2l-7 4 1-4 7-6 5-3z" fill="#0998B0"/> -->
<path transform="translate(698,241)" d="m0 0h6l4 7v5l-3-3-2-4-6 1z" fill="#0993AE"/>
<path transform="translate(213,216)" d="m0 0 7 2 4 3-2 3-6-2-4-4z" fill="#0995AE"/>
<path transform="translate(148,190)" d="m0 0 1 3-5 13-3 1 2-9 2-6z" fill="#0BA4BA"/>
<path transform="translate(294,595)" d="m0 0h1l-1 7-3 3h-7l3-5 7-2z" fill="#0996AE"/>
<!-- <path transform="translate(377,560)" d="m0 0 4 4 4 11-1 4-3-5-1-6h-2l-1-2z" fill="#0998B0"/> -->
<!-- <path transform="translate(590,503)" d="m0 0 3 1 1 2v12l-1 2h-2z" fill="#0998B0"/> -->
<path transform="translate(519,382)" d="m0 0 4 1-4 2-3 3-10 4-2-1 5-4h2v-2z" fill="#0996AE"/>
<path transform="translate(351,76)" d="m0 0h2v2l-11 8-5 3-2-1 8-7z" fill="#0AA3B9"/>
<!-- <path transform="translate(221,583)" d="m0 0h21l12 1v3l-4-1-29-2z" fill="#0995AD"/> -->
<!-- <path transform="translate(383,227)" d="m0 0 2 4v16l-3 3z" fill="#0995AD"/> -->
<path transform="translate(528,140)" d="m0 0h12l9 4-4 1-17-4z" fill="#0BA4BA"/>
<path transform="translate(686,743)" d="m0 0h12l-4 2-5 4-3 1z" fill="#094882"/>
<!-- <path transform="translate(95,595)" d="m0 0h1v11l-6-1-1-3z" fill="#0995AD"/> -->
<path transform="translate(576,571)" d="m0 0 4 4 8 12 2 1-1 3-5-5-8-12z" fill="#0772A6"/>
<path transform="translate(696,715)" d="m0 0h1v10l-2 4h-17v-1l12-1 5-3z" fill="#096F9E"/>
<path transform="translate(564,556)" d="m0 0 5 2 4 4v2l2 1-1 2h-3l-7-9z" fill="#0891AD"/>
<!-- <path transform="translate(677,250)" d="m0 0 5 3v2h2l-1 4-5-2-2-2z" fill="#0995AD"/> -->
<path transform="translate(263,124)" d="m0 0 2 1-2 2-11 3-4 1h-6l3-2z" fill="#0893AC"/>
<path transform="translate(685,748)" d="m0 0h3 3l-2 8-3 4-1-3z" fill="#076DA3"/>
<!-- <path transform="translate(707,677)" d="m0 0 2 2v3h2l6 7 3 3-5-1-7-7z" fill="#094D87"/> -->
<path transform="translate(616,502)" d="m0 0h3v17l-3-1z" fill="#099BB2"/>
<!-- <path transform="translate(347,709)" d="m0 0 3 2v3h2l6 7 2 2-5-1-8-9z" fill="#095A8D"/> -->
<path transform="translate(245,538)" d="m0 0h1v9h-9l3-1 3-6h2z" fill="#0890AB"/>
<!-- <path transform="translate(534,599)" d="m0 0 3 1v5h-9l1-3z" fill="#0995AD"/> -->
<path transform="translate(482,133)" d="m0 0 7 1 12 5v3l-12-5-7-3z" fill="#0999B1"/>
<!-- <path transform="translate(610,147)" d="m0 0 7 3v2h-8l-3-1 1-3z" fill="#0995AD"/> -->
<path transform="translate(646,214)" d="m0 0 1 4h2v5l-5 1-1-5z" fill="#0996AF"/>
<path transform="translate(592,749)" d="m0 0h2v8l-2 5-3 1v-13h1l1 6z" fill="#0778A8"/>
<!-- <path transform="translate(650,247)" d="m0 0 4 1v3h-4l-5 2-5 3v-3l5-3z" fill="#0995AD"/> -->
<!-- <path transform="translate(142,164)" d="m0 0 6 3v6l-2 2-4-9z" fill="#065A9F"/> -->
<!-- <path transform="translate(71,714)" d="m0 0 5 5 5 6-5-1-5-6z" fill="#09588B"/> -->
<!-- <path transform="translate(317,171)" d="m0 0h11v3l-4 1-4-2-4 1-5-1v-1z" fill="#0995AD"/> -->
<path transform="translate(111,387)" d="m0 0 4 1 8 8-1 2-5-2v-3l-7-4z" fill="#088EAB"/>
<path transform="translate(667,596)" d="m0 0 5 1 4 5h-5l-6-4z" fill="#099BB2"/>
<path transform="translate(623,369)" d="m0 0h10l7 3v2l-5-1-4-1v-2h-8z" fill="#0A9CB3"/>
<path transform="translate(275,117)" d="m0 0m-3 1 6 1-1 2-6 2h-4l1-3z" fill="#0A9DB4"/>
<path transform="translate(614,752)" d="m0 0h2v21h-1v-17l-3 1z" fill="#0A9EB5"/>
<path transform="translate(756,696)" d="m0 0 2 2 1 10-1 3h-2v-10l-1-3z" fill="#096493"/>
<path transform="translate(670,567)" d="m0 0 4 1 4 6-1 2-5-3v-2h-2z" fill="#0999B0"/>
<path transform="translate(369,537)" d="m0 0 2 3 2 4v5l-4-3v-5l-2-1z" fill="#099AB1"/>
<!-- <path transform="translate(363,120)" d="m0 0 3 4 2 12h-2l-2-7z" fill="#0995AD"/> -->
<!-- <path transform="translate(239,525)" d="m0 0h8l-1 6-6-3z" fill="#0995AD"/> -->
<path transform="translate(267,120)" d="m0 0m-3 1h3l-1 3-6 2h-5l1-2z" fill="#0AA3B9"/>
<path transform="translate(610,751)" d="m0 0 3 2-2 10-1-3h-2z" fill="#0775A8"/>
<path transform="translate(731,742)" d="m0 0h15l-2 3h-8v-1l-5-1z" fill="#076AA4"/>
<!-- <path transform="translate(123,257)" d="m0 0h2l2 3v6l-2 2-2-6z" fill="#065A9F"/> -->
<!-- <path transform="translate(191,209)" d="m0 0h8l4 1v2l-16-1z" fill="#0995AD"/> -->
<path transform="translate(658,755)" d="m0 0h1v13l-3 1-1 2 1-7h1z" fill="#086E9C"/>
<path transform="translate(703,755)" d="m0 0h2v2l3 1-4 3-1-2h-2v-2h-8v-1z" fill="#087FAC"/>
<path transform="translate(718,743)" d="m0 0 5 1-1 5-2-1-1 6h-1z" fill="#094780"/>
<path transform="translate(634,726)" d="m0 0 9 1v2l-5 2-4-1z" fill="#09598C"/>
<path transform="translate(497,212)" d="m0 0h2l5 8-1 2-3-1v-2h-2z" fill="#0999B0"/>
<!-- <path transform="translate(591,275)" d="m0 0h2l2 4v6l-2 1-2-6z" fill="#0995AD"/> -->
</svg>
