<?xml version="1.0"?>
<svg width="800" height="800" xmlns="http://www.w3.org/2000/svg" xmlns:svg="http://www.w3.org/2000/svg" version="1.1">
 <g class="layer">
  <title>Layer 1</title>
  <text fill="#065B9F" font-family="Sans-serif" font-size="26" font-weight="bold" id="svg_51" stroke-width="0" text-anchor="middle" transform="matrix(1.65258 0 0 1.74405 -245.954 -561.46)" x="555.36" xml:space="preserve" y="766.07">MADRID</text>
  <text fill="#0AA3B9" font-family="Sans-serif" font-size="26" font-weight="bold" id="svg_49" stroke-width="0" text-anchor="middle" transform="matrix(7.15619 0 0 7.19194 -185.837 -2908.41)" x="81.86" xml:space="preserve" y="488.62">TEATRO</text>
  <path d="m682.96,69.41l2.19,27.2l-2.16,15.17l-5,19l-6,15l-6,11l-3,4l0,2l26,10l27,12l21,10l-3,5l-12,15l-11,14l-6,8l0,5l6,12l3,11l0,20l-3,12l-7,14l-10,11l-13,8l-3,0l6,34l2,19l0,15l-3,12l-4,8l-7,7l-12,6l-4,1l-16,0l-13,-4l-11,-7l-7,-8l-4,-10l0,-9l3,-10l6,-9l10,-5l10,0l8,4l5,5l2,5l0,14l-8,9l-12,4l-1,4l4,5l7,4l4,1l7,0l10,-3l9,-6l6,-8l3,-9l0,-18l-6,-42l-1,-5l-14,2l-15,0l-18,-4l-11,-4l-4,1l-10,8l-19,13l-10,7l-15,10l-18,11l-18,10l-23,12l-34,15l-30,11l-29,9l-37,8l-38,5l-32,1l-26,-1l-32,-4l-28,-6l-27,-8l-20,-8l-22,-11l-20,-12l-16,-11l-10,-8l-14,-12l-7,-7l1,-5l8,-16l12,-23l13,-22l16,-24l-2,-11l-2,-9l-3,0l-2,4l-9,8l-8,3l-10,0l-6,-3l-4,-6l-1,-3l0,-10l5,-10l4,-5l10,-6l8,-2l8,1l-7,-24l-17,-57l-7,-25l-2,-9l5,1l9,11l13,11l19,12l3,1l23,0l43,-4l27,-5l19,-4l25,-8l25,-10l25,-12l22,-13l12,-8l7,-5l4,0l6,26l0,2l2,0l3,-10l7,-21l2,-1l10,8l15,11l20,13l17,10l27,14l28,12l27,9l25,6l24,4l26,3l25,1l-1,5l-12,29l-15,36l-14,36l-8,18l-10,13l-8,10l-12,13l-22,22l-11,9l-14,10l-16,10l-19,8l-13,4l-15,2l-13,0l-16,-3l-17,-7l-11,-8l-9,-8l-5,-6l0,-2l-5,-1l1,7l8,10l11,9l12,7l14,5l9,2l10,1l10,0l15,-2l15,-4l15,-6l20,-11l11,-8l12,-9l12,-11l4,-4l2,-2l14,-14l7,-8l8,-9l8,-12l3,-4l4,1l6,12l8,11l9,9l6,4l4,-4l5,1l11,4l12,2l12,0l10,-2l4,0l-8,-40l0,-2l-5,3l-5,5l-9.42,7.93l3.01,2.06l2.6,2.69l-5.93,-0.46l-4.05,-2.02l3.78,-2.2l-4,-2l-5,-10l-1,-5l0,-14l4,-10l10,-10l4,-2l5,0l2,6l5,24l2,2l1,-1l0,-7l-4,-20l0,-7l12,2l10,6l5,2l12,-13l2,-2l-7,-8l-7,-5l-11,-4l-22,-1l-5,-25l-3,-14l1,-5l9,-9l3,-6l-9,-2l-19,-6l-5,1l-14,0l-27,-2l-36,-6l-32,-8l-18,-6l-6,-3l0,-2l12,0l34,4l36,6l32,7l22,6l4,-1l1,-5l-6,-39l0,-29l3,-16l6,-17l8,-15l7,-7l15.5,19l9.41,14.84l5.06,13.8zm14.05,207.18c0.14,0 -1.85,-6.83 -1.85,-6.83c0,0 -6.26,-11.81 -6.26,-11.81c0,0 -3.27,-1.42 -3.27,-1.42c0,0 -7.54,9.25 -7.54,9.25c0,0 -10.24,9.1 -10.24,9.1zl29.16,1.71zl-9.96,38.26zl-19.06,-30.44zl7.97,36.13zl1.85,2.13zl-8.96,-33.14zl28.31,6.54zl-3.98,9.82zm-298.36,-3.17l19.84,3.9l21.79,7.8l13.33,8.29l10.41,8.62l7.48,9.27l4.07,-0.81c0,0 3.09,-12.03 3.09,-12.52c0,-0.49 2.11,-13.17 2.11,-13.17c0,0 0.65,-9.11 0.65,-9.11c0,0 -3.9,-13.5 -3.9,-13.5c0,0 -6.02,-10.24 -6.02,-10.24c0,0 -6.67,-7.15 -6.67,-7.15c0,0 -11.38,-6.5 -11.38,-6.5c0,0 -11.71,-5.04 -11.71,-5.04c0,0 -14.15,-2.93 -14.15,-2.93c0,0 -12.36,-0.49 -12.36,-0.49c0,0 -6.02,1.14 -6.02,1.14c0,0 -10.57,5.04 -10.57,5.04c0,0 -8.29,7.48 -8.29,7.48c0,0 -2.93,6.02 -2.93,6.02c0,0 -4.72,21.46 -4.72,21.46c0,0 0.81,2.28 0.81,2.28zl15.12,0.16zm-6.39,-128.76l6.87,7.3l14.16,6.84l12.13,3.15l14.89,0.06l4.17,-1.17l10.9,-4.03l7.78,-7.05l0.03,-5.66l-2.73,-2.73l-6.14,-0.52l-6.05,3.17l-11.12,4.1l-9.92,-0.15l-11.12,-2.92l-7.89,-5.13l-7.15,-8.01l-2.81,-12.9l-1.43,-1.74l-8.58,-0.28l-3.32,2.95zl0.37,11.44zl6.96,13.3zm122.66,31.43l-2.94,-12.8l-1.83,-2.53l-7.16,-0.11l-3.27,3.27l0.14,13.02l4.02,9.75l8.38,9.15l12.49,6.73l15.16,4.18l11.77,-0.17l9.34,-1.75l8.98,-4.41l6.92,-5.74l0.26,-4.65l-5.18,-5.14l-8.33,1.76l-11.96,5.03l-11.96,0.07l-10.51,-3.2l-9.06,-5.74zl-5.27,-6.72zm150.95,-152.49l-10.14,6.96l-6.38,8.7l-5.8,15.8l-2.46,14.06l-0.43,20.87l3.04,18.41l3.19,1.45l22.32,-29.42l6.81,-13.48l3.04,-10.29l1.01,-15.8l-7.54,-15.51l-6.67,-1.74z" fill="#0AA3B9" id="svg_2"/>
  <path d="m351,85l3,2l7,30l21,91l0,28l-3,27l-6,29l-7,24l-7,17l-9,17l-10,13l-14,14l-14,9l-14,6l-17,3l-12,0l-16,-3l-20,-8l-18,-11l-14,-11l-16,-15l-10,-11l-9,-11l-10,-13l-18,-27l-6,-12l-12,-45l-14,-56l-4,-14l0,-6l8,1l17,4l10,5l6,8l2,6l0,17l-4,14l3,-3l4,-11l2,-8l0,-10l-4,-13l-6,-9l1,-2l41,-4l31,-5l26,-6l26,-8l26,-10l25,-12l16,-9l16,-10l3,-2zl0,0z" fill="#FEFEFE" id="svg_3"/>
  <path d="m0,0l25,0l3,7l16,47l3,11l1,1l12,-36l10,-29l1,-1l24,0l1,1l3,60l1,22l0,22l-22,1l-1,-4l-1,-63l-6,16l-12,34l-2,3l-20,0l-3,-5l-12,-35l-4,-11l-2,63l-1,1l-19,0l0,-12l4,-85l1,-8z" fill="#065D9F" id="svg_10" transform="translate(233,623)"/>
  <path d="m0,0l3,1l5,15l2,10l0,14l-3,11l-6,11l-7,8l-11,7l-16,6l-11,2l-12,0l-13,-3l-10,-6l-7,-6l-7,-10l-7,-15l-4,-13l0,-3l9,3l14,3l17,0l23,-5l19,-7l10,-6l7,-7l4,-6l1,-4z" fill="#0AA3B9" id="svg_15" transform="translate(313,260)"/>
  <path d="m371,647l16,0l11,4l7,7l4,6l3,11l0,16l-1,1l-48,0l2,9l5,8l5,3l9,2l13,-1l8,-3l3,0l0,15l-4,3l-16,4l-8,0l-12,-3l-12,-6l-9,-10l-4,-10l-1,-4l0,-20l4,-13l7,-10l5,-4l8,-4l5,-1zm-3.12,16.94l-4.94,8.06l-0.06,5.94l1.06,1.06l24.18,0c0,0 3.82,-1 3.88,-1c0.06,0 0,-7 0,-7c0,0 -2,-4.06 -2,-4.06c0,0 -7,-5.88 -7,-5.88c0,0 -10,-0.18 -10,-0.18c0,0 -5.12,3.06 -5.12,3.06z" fill="#065FA0" id="svg_17"/>
  <path d="m154,648l20,0l11,4l5,4l5,8l2,8l1,43l1,12l-13,3l-6,1l-1,-7l-15,6l-11,1l-10,-4l-6,-5l-4,-7l0,-15l4,-7l8,-7l10,-3l22,-2l-2,-9l-4,-5l-5,-2l-12,0l-12,4l-2,0l-1,-8l2,-8l8,-4l5,-1zm8.7,47.9l-6.8,3l-3.1,5l1.2,6.1l5.1,5.1l10,0l3.9,-2l4,-4l0,-9.1l-2.1,-4l-12.2,-0.1z" fill="#065FA0" id="svg_18" transform="matrix(1 0 0 1 0 0)"/>
  <path d="m608,648l20,0l9,3l10,9l4,9l1,50l1,7l-7,2l-8,3l-4,-1l-2,-5l-15,5l-13,0l-8,-4l-5,-5l-4,-7l0,-14l3,-6l5,-5l7,-4l8,-2l20,-2l0,-7l-4,-6l-6,-3l-13,0l-11,4l-2,0l-1,-8l2,-8l9,-4l4,-1zm-0.06,53.94l0,7.94l5,5.12l9.06,0.06l3.12,-1.06l5.82,-4.88l0.12,-10.06l-3,-3l-11.12,-0.18l-5,2.12l-4,3.94z" fill="#065EA0" id="svg_19"/>
  <path d="m639,184l4,0l6,34l0,5l-12,7l-10,9l-5,8l-4,12l-1,11l5,16l8,11l8,5l-5,6l-13,10l-5,1l-9,-7l-8,-10l-5,-10l-3,-11l-1,-6l0,-12l13,-33l8,-18l24,-24l5,-4z" fill="#0AA3B9" id="svg_20" transform="matrix(1 0 0 1 0 0)"/>
  <path d="m0,0l3,1l2,5l4,-1l10,-4l16,0l10,5l6,7l3,8l0,60l-9,1l-11,-1l-1,-1l0,-44l-1,-11l-4,-4l-3,-2l-12,0l-6,2l-1,60l-10,1l-11,-1l-1,-71l-1,-3l1,-2l16,-5z" fill="#065FA0" id="svg_21" transform="translate(523,647)"/>
  <path d="m0,0l7,0l1,5l5,-1l9,-4l16,0l10,4l7,8l3,8l0,60l-20,0l-1,-5l0,-17l-1,-32l-3,-5l-5,-3l-11,0l-6,2l-1,2l-1,59l-13,0l-7,-1l-1,-64l-1,-12l13,-4z" fill="#065FA0" id="svg_22" transform="translate(434,648)"/>
  <path d="m69,623l21,0l1,80l1,6l5,1l28,0l3,2l-1,16l-43,0l-8,-4l-5,-6l-2,-4l0,-91z" fill="#065B9F" id="svg_23" transform="matrix(1 0 0 1 0 0)"/>
  <path d="m0,0l16,0l12,3l1,4l-1,12l-9,-2l-11,-1l-7,2l-2,1l0,6l10,6l11,6l7,6l4,7l1,10l-4,9l-5,6l-12,6l-4,1l-20,0l-8,-3l-1,-2l0,-13l4,-1l7,2l16,0l5,-3l1,-4l-5,-5l-18,-10l-7,-7l-3,-9l1,-11l5,-8l9,-6l7,-2z" fill="#065D9F" id="svg_24" transform="translate(727,648)"/>
  <path d="m0,0l6,0l1,1l1,60l2,3l8,1l1,1l0,10l-2,4l-17,0l-6,-3l-6,-8l-2,-9l0,-59l14,-1z" fill="#065FA0" id="svg_26" transform="translate(678,649)"/>
  <path d="m0,0l13,0l11,4l7,5l6,9l0,5l-7,4l-4,-1l-5,-5l-5,-4l-4,-2l-12,0l-10,3l-9,5l-8,8l-6,11l-3,2l-7,-3l-1,-2l1,-9l6,-11l8,-8l16,-8l13,-3z" fill="#0AA3B9" id="svg_28" transform="translate(316,170)"/>
  <path d="m0,0l8,0l10,2l12,6l6,5l3,4l-1,4l-5,5l-6,-2l-12,-7l-8,-2l-8,0l-12,3l-9,5l-5,8l-5,11l-3,1l-6,-2l-2,-4l1,-9l6,-12l10,-9l13,-5l13,-2z" fill="#0AA3B9" id="svg_29" transform="translate(189,198)"/>
  <path d="m0,0l7,0l6,5l2,4l0,7l-5,6l-4,2l-7,0l-5,-4l-2,-4l0,-8l3,-5l5,-3z" fill="#065FA0" id="svg_37" transform="translate(672,612)"/>
 </g>
</svg>